<?xml version="1.0" encoding="UTF-8" standalone="no"?>
<!-- Created with Inkscape (http://www.inkscape.org/) -->

<svg
   width="5.3423419mm"
   height="5.2916589mm"
   viewBox="0 0 5.3423419 5.2916589"
   version="1.1"
   id="svg1"
   xmlns="http://www.w3.org/2000/svg"
   xmlns:svg="http://www.w3.org/2000/svg">
  <defs
     id="defs1" />
  <g
     id="layer1"
     transform="translate(-137.72579,-125.24623)">
    <path
       d="m 138.24316,126.26562 c -0.20024,0 -0.36143,0.16119 -0.36143,0.36143 v 3.39342 c 0,0.20024 0.16119,0.36147 0.36143,0.36147 h 3.39343 c 0.20024,0 0.36147,-0.16123 0.36147,-0.36147 v -0.50198 h -2.84077 c -0.20024,0 -0.36143,-0.16118 -0.36143,-0.36142 v -2.89145 z"
       style="fill:none;stroke:#000000;stroke-width:0.311891;stroke-linejoin:round;stroke-opacity:0.981893"
       id="path4" />
    <path
       d="m 139.15729,125.40217 c -0.20024,0 -0.36143,0.16119 -0.36143,0.36143 v 3.39347 c 0,0.20024 0.16119,0.36142 0.36143,0.36142 h 3.39346 c 0.20024,0 0.36143,-0.16118 0.36143,-0.36142 v -3.39347 c 0,-0.20024 -0.16119,-0.36143 -0.36143,-0.36143 z"
       style="fill:none;stroke:#000000;stroke-width:0.311891;stroke-linejoin:round;stroke-opacity:0.999987"
       id="path3" />
  </g>
</svg>
