<?xml version="1.0" encoding="UTF-8" standalone="no"?>
<!-- Created with Inkscape (http://www.inkscape.org/) -->

<svg
   width="4.2333336mm"
   height="4.2333331mm"
   viewBox="0 0 4.2333336 4.2333331"
   version="1.1"
   id="svg1"
   xmlns="http://www.w3.org/2000/svg"
   xmlns:svg="http://www.w3.org/2000/svg">
  <defs
     id="defs1" />
  <g
     id="layer1"
     transform="matrix(0.05291682,0,0,0.05291682,-2.4014193,-4.6263071)">
    <path
       id="path1"
       style="fill:#ffffff;fill-opacity:1;stroke-width:4.4413;stroke-linejoin:round;stroke-opacity:0.981893"
       d="m 85.38116,87.426023 a 40,40 0 0 0 -40.000139,40.000137 40,40 0 0 0 40.000139,39.99963 40,40 0 0 0 39.99963,-39.99963 v -5.1e-4 A 40,40 0 0 0 85.38116,87.426023 Z m 4.3894,13.158887 c 6.72176,6e-5 12.17061,5.44957 12.17032,12.17135 -7e-5,6.72152 -5.44881,12.17024 -12.17032,12.17031 -0.83061,-0.0102 -1.65842,-0.10545 -2.46962,-0.28422 l -8.200014,19.60604 5.751074,2.99103 -2.939359,6.37739 -5.85649,-2.67064 -1.419552,3.32073 -5.815665,-2.85771 12.515515,-29.9191 c -2.377185,-2.28497 -3.725773,-5.43656 -3.736723,-8.73383 -2.88e-4,-6.72178 5.449066,-12.17129 12.170834,-12.17135 z m 1.21595,3.98528 c -3.02472,1e-5 -5.47666,2.45195 -5.47667,5.47667 1e-5,3.02471 2.45195,5.47665 5.47667,5.47667 3.0247,-2e-5 5.47717,-2.45196 5.47718,-5.47667 -1e-5,-3.02472 -2.45248,-5.47666 -5.47718,-5.47667 z" />
  </g>
</svg>
